PathFileType	4	(X/Y/Z)	OpenSim_Sub01_CSBaseline_Accel.trc
DataRate	CameraRate	NumFrames	NumMarkers	Units	OrigDataRate	OrigDataStartFrame	OrigNumFrames
100	100	37	8	m	100	2232	5950
Frame#	Time	torso_imu_offset_imu	pelvis_imu_offset_imu	tibia_r_imu_offset_imu	femur_r_imu_offset_imu	tibia_l_imu_offset_imu	femur_l_imu_offset_imu	toes_r_imu_offset_imu	toes_l_imu_offset_imu
				X1	Y1	Z1	X2	Y2	Z2	X3	Y3	Z3	X4	Y4	Z4	X5	Y5	Z5	X6	Y6	Z6	X7	Y7	Z7	X8		Y8	Z8	

2232	22.31000000	9.00519920	0.89135669	6.40622343	9.04636515	-0.67068455	2.25737754	11.28582227	2.89769634	1.49949322	9.04203228	-3.33032926	1.70269558	9.58891201	-3.66488322	-0.30522506	9.72796704	1.10002639	-1.59491210	15.77010431	-4.68111714	5.54581996	5.62342957	0.66910206	10.88433446
2233	22.32000000	8.97697062	0.90134765	6.49440731	9.04784783	-0.64586161	2.29033141	11.08892197	3.84223656	1.20251284	9.27988332	-4.55751499	1.83351546	9.61170458	-3.52337070	-0.30619671	9.70067317	0.95846421	-1.60120016	16.16305660	-4.49096550	4.99193789	5.50221197	0.75231054	10.95065414
2234	22.33000000	8.97921135	0.85899049	6.46734940	9.09786670	-0.71443911	2.31399212	10.91604215	4.60033614	0.54245641	9.23037512	-5.64175148	1.70825643	9.69587858	-3.30379960	-0.42129129	9.74801249	0.91111411	-1.55147394	16.13690014	-3.42664706	4.43476041	5.45185514	0.77567055	10.98110755
2235	22.34000000	9.01397219	0.78269543	6.37382976	9.18549584	-0.84978093	2.32152754	10.72371943	4.89725012	-0.14437261	8.93635436	-6.39412728	1.41826683	9.81731061	-3.05864883	-0.62218453	9.82994653	0.96394576	-1.47837456	15.86727238	-1.63191504	3.75217541	5.48039287	0.77162064	10.97185771
2236	22.35000000	9.07130345	0.70496401	6.34156645	9.27984977	-0.97865125	2.31952057	10.38179171	4.50088010	-0.23168697	8.58156462	-6.65701382	1.23553566	9.91586613	-2.82083878	-0.81809452	9.83843769	1.09928834	-1.41954370	15.77699056	0.38341815	2.79031969	5.53398456	0.83908571	10.95171509
2237	22.36000000	9.14223512	0.64755077	6.42388693	9.35732653	-1.05788250	2.31316608	9.84745556	3.43325325	0.45525174	8.33640925	-6.38161934	1.31966798	9.96692328	-2.62855838	-0.94157435	9.73683645	1.28426724	-1.40684121	16.06620318	2.21106349	1.47689604	5.57303059	1.00707634	10.94292841
2238	22.37000000	9.22032930	0.60782455	6.50585678	9.41115122	-1.11274131	2.30417509	9.27532852	2.28218932	1.07529261	8.33746268	-5.76109406	1.57430070	10.02613704	-2.53231606	-0.97904500	9.64974029	1.45276590	-1.45908193	16.43109664	3.67981461	-0.07748151	5.59149112	1.14668799	10.95216374
2239	22.38000000	9.29986534	0.58040400	6.46441924	9.43855735	-1.17409066	2.29025355	8.83871415	1.64928261	0.75541681	8.68620281	-5.00904689	1.86638444	10.15217826	-2.57053462	-0.92670448	9.70676232	1.54468259	-1.58712057	16.52813465	4.64727572	-1.71928668	5.58957675	1.12403721	10.98193371
2240	22.39000000	9.37899029	0.56557960	6.32770299	9.45465515	-1.23497543	2.23262710	8.62805545	1.48800194	-0.28733938	9.16903857	-4.21233741	2.04168463	10.32271732	-2.63966084	-0.80643964	9.86405737	1.60844435	-1.73785696	16.30765985	4.93731109	-3.10748369	5.58514754	0.97442402	11.01363873
2241	22.40000000	9.45807747	0.56698268	6.21279684	9.48504467	-1.26616701	2.07116378	8.68430509	1.37036880	-1.19437520	9.38733617	-3.38316340	1.93400504	10.46778044	-2.55292721	-0.65527368	9.97576341	1.75623682	-1.82061647	15.89342106	4.35491924	-3.79215980	5.60635434	0.83277347	11.01633751
2242	22.41000000	9.52576851	0.58718051	6.18893697	9.54350108	-1.24602385	1.78017981	8.91909849	1.05678996	-1.41881639	9.11623462	-2.55681597	1.49072127	10.54683464	-2.23779826	-0.50646561	9.96131900	2.04436064	-1.77720710	15.41848601	2.92511048	-3.69161407	5.65573904	0.79625859	10.98295642
2243	22.42000000	9.54446425	0.62626986	6.21602207	9.61711250	-1.17047557	1.41147054	8.95695679	0.73901068	-1.12783598	8.52394308	-1.82226689	0.91296306	10.58641117	-1.87902072	-0.38443900	9.88880794	2.40258327	-1.62299798	15.03171454	1.16434452	-3.54886464	5.67840638	0.87494443	10.96003297
2244	22.43000000	9.48106773	0.68275777	6.24200103	9.69223192	-1.03923652	1.03386933	8.45239260	0.64405226	-0.58523806	7.83427884	-1.26931388	0.42539054	10.61936376	-1.67732084	-0.31064425	9.83801904	2.74487372	-1.38334545	14.78772159	-0.39635691	-4.05503068	5.62259125	1.05901850	10.99361056
2245	22.44000000	9.38561564	0.74219063	6.24418622	9.78490070	-0.86654896	0.78387682	7.77059550	0.76059510	-0.05498938	7.29607458	-0.92129738	0.14112527	10.65013812	-1.63900631	-0.28817969	9.80194374	2.99885246	-1.08395591	13.74611444	-1.76212166	-4.21343470	5.54907432	1.25513704	11.04974453
2246	22.45000000	9.35708157	0.78243251	6.21734161	9.92859559	-0.67512304	0.83743055	7.69453859	0.93579256	0.20016557	7.17273933	-0.76227163	0.10745416	10.66664928	-1.65575438	-0.30923624	9.72259971	3.10050392	-0.75079358	10.38688519	-3.25246957	-2.03852903	5.58459223	1.32108590	11.04760492
2247	22.46000000	9.47228972	0.77357591	6.18374313	10.14022752	-0.46597843	1.26856032	8.69932742	0.82019749	0.19695311	7.68940874	-0.75882482	0.36384125	10.70504546	-1.63177000	-0.34876351	9.59053602	3.05171181	-0.42069619	4.74826084	-4.78661488	3.01818727	5.76345740	1.20063007	10.97005785
2248	22.47000000	9.75723177	0.66859449	6.22655001	10.39924189	-0.19149332	1.92277503	10.56108421	-0.37022423	0.57563849	8.98539994	-0.83970668	0.93419424	10.90957279	-1.50251647	-0.34355575	9.50605822	3.00115755	-0.15475569	0.36202352	-5.38151608	8.27026080	5.91185697	1.03078649	10.94344460
2249	22.48000000	10.22083001	0.42639219	6.42180247	10.68165965	0.19736342	2.62383493	12.91562912	-3.28288173	1.94366147	11.12025529	-0.97714925	1.80571448	11.41869213	-1.22737660	-0.23000875	9.57714020	3.10283863	-0.01310157	0.82902926	-4.10943677	10.90208244	5.84903094	0.95903803	11.09834425
2250	22.49000000	10.76679430	0.09100743	6.68700149	10.98048298	0.69622764	3.29018512	14.92673489	-6.54766685	3.69859140	13.44982876	-1.64513412	2.60839145	12.16014265	-0.96900521	0.00629732	9.83760722	3.36057864	-0.01204761	5.58324454	-1.87390803	11.28344452	5.61322022	0.97096951	11.40867163
2251	22.50000000	11.23706387	-0.24344035	6.84653805	11.29861259	1.26893824	3.89596167	15.48310074	-7.61001885	4.52722502	14.91702519	-3.61013570	2.76218636	12.93768707	-1.00914116	0.35052214	10.27735290	3.68959628	-0.14188277	11.60248026	-0.65370933	11.65789175	5.37152983	0.95684992	11.75590408
2252	22.51000000	11.53617270	-0.51267151	6.81255570	11.61375001	1.81604871	4.38039385	14.19257147	-5.12417485	3.74015782	14.92350771	-6.89781540	1.83435802	13.62515260	-1.45393992	0.73571583	10.84586471	4.00176039	-0.35526504	16.27495602	-1.36013452	13.13498432	5.22178055	0.84712472	12.01736258
2253	22.52000000	11.71010187	-0.72043114	6.69568266	11.84708515	2.09782278	4.60321845	12.27553128	-0.47568214	2.06034546	13.90646114	-9.87244704	-0.27311740	14.25627441	-2.01434900	0.97950186	11.40374020	4.20402068	-0.52163824	17.97545570	-2.49162207	14.24002221	5.10348522	0.66463275	12.06375987
2254	22.53000000	11.81151959	-0.88004610	6.62035435	11.91739440	1.88523546	4.43799179	11.04262124	4.60806410	0.36942654	12.42871141	-10.77864107	-3.46039239	14.87425701	-2.35853365	0.90831958	11.80327369	4.19929140	-0.51589156	15.49413036	-2.40630212	13.35756614	4.96408296	0.45677499	11.79240099
2255	22.54000000	11.76454849	-1.00874093	6.57629257	11.79747637	1.25580504	4.01197694	10.48377995	8.68580133	-0.78563768	10.90368349	-8.94636309	-6.05242260	15.39669514	-2.26503856	0.60085376	11.93520665	3.85569735	-0.38536816	10.53113700	-1.38421995	11.02906970	5.05397396	0.39546305	11.38435038
2256	22.55000000	11.41799245	-1.12604767	6.47396737	11.49208041	0.46750434	3.60172302	9.81188359	10.48865133	-1.05694335	9.65592424	-4.34992450	-5.45399804	15.66723815	-1.57860985	0.28435848	11.71344375	3.02154638	-0.27890487	6.49643874	-0.83583899	9.06482683	5.80148720	0.72516194	11.18741009
2257	22.56000000	10.72911828	-1.25323376	6.26989892	11.02343496	-0.30194491	3.40360150	8.67095795	9.50918549	-0.44168083	8.85205782	2.17065981	-0.99048466	15.56200499	-0.37452403	0.13670813	11.15423997	1.69475844	-0.29473617	5.35064755	-1.46365519	8.52610202	7.46725178	1.50023448	11.41051930
2258	22.57000000	9.89937466	-1.41537230	6.02564303	10.45184761	-1.05908670	3.43078078	7.68944875	6.93400214	0.29870248	8.30890376	7.86234042	3.70089537	15.03169547	0.75947637	0.22131321	10.50155335	0.20764966	-0.41526210	5.77117576	-2.35789928	8.76628247	9.93258203	2.34878232	11.94796840
2259	22.58000000	9.15360777	-1.63403540	5.81331540	9.84412614	-1.81679197	3.66532760	7.56238610	4.13788887	0.38829811	7.83809364	9.98392828	4.80436071	14.05579218	1.20842094	0.58055746	10.01737756	-1.08348378	-0.61055221	6.11347509	-2.49496678	8.96655193	12.96073167	2.86859122	12.62971195
2260	22.59000000	8.61712422	-1.88933647	5.66732848	9.28099276	-2.39585627	4.02413478	8.29710219	2.07212085	-0.03053849	7.68632675	8.58890377	2.68378274	12.80674136	0.79208848	1.19964144	9.83183113	-2.04188728	-0.88518446	5.99534664	-1.92815965	8.91598569	15.62598869	2.93990171	13.06104431
2261	22.60000000	8.35618818	-2.13695489	5.59978435	8.85123106	-2.50456614	4.38576845	9.49512394	1.43522945	-0.27528499	8.35470536	5.37884623	0.16404115	11.57012698	-0.41308621	2.02910603	9.99692764	-2.66028418	-1.26383418	5.77864471	-1.34483307	8.76213886	16.60041665	2.61017778	12.71852086
2262	22.61000000	8.36858418	-2.33742219	5.60819222	8.61248619	-2.02043772	4.65425314	10.73145269	2.30894595	0.01294789	9.86776401	1.94816065	-0.90776845	10.48450404	-2.28977446	2.82302850	10.49885062	-2.92463381	-1.71616536	5.69381630	-1.17263460	8.62677168	15.44724945	2.05417667	11.88226298
2263	22.62000000	8.50100300	-2.46280100	5.65814403	8.55269254	-1.20182837	4.79152322	11.53360712	3.40604415	0.45535956	11.17935025	-0.39541186	-0.93722139	9.35710374	-4.63680391	2.89812268	11.17915166	-2.80206914	-2.08851730	5.65664604	-1.24144908	8.56375095	13.72976055	1.72585846	12.62907597
2264	22.63000000	8.59613776	-2.48904700	5.71431192	8.64871691	-0.34217284	4.77248700	11.48454112	3.39398857	0.60429183	11.22697999	-0.56239630	-0.60982803	7.97286340	-7.21880696	1.62641542	11.86139648	-2.27104996	-2.22134947	5.55390807	-1.32083053	8.60705462	13.05474878	2.07246852	16.87637028
2265	22.64000000	8.66646664	-2.41619906	5.77645616	8.86054379	0.43494808	4.62509951	10.80582692	2.38472050	0.33167129	10.27515984	0.68381403	-0.35439072	6.34937755	-9.56451436	-0.43810365	12.38550098	-1.45326742	-2.06668659	5.41242083	-1.39248684	8.68017299	12.68459097	3.08192688	22.38632218
2266	22.65000000	8.82424895	-2.25851164	5.86497409	9.13815462	1.10611749	4.40855651	10.09481861	1.34078635	-0.30161270	9.36918036	1.49072109	-0.44737887	4.64170564	-11.06460949	-2.04630691	12.60146895	-0.55462837	-1.64257931	5.34134308	-1.56298864	8.64181125	10.50506945	4.47024118	24.48171792
2267	22.66000000	9.10184333	-2.03208033	5.98718381	9.42219259	1.64056022	4.17101855	9.74838568	0.90530595	-1.14215876	9.12574147	0.83717315	-0.97484617	3.05113134	-11.34583956	-2.39725553	12.45315995	0.27788792	-1.01211382	5.39190514	-1.87761929	8.43393572	5.75967830	5.75166853	20.99240220
2268	22.67000000	9.35045102	-1.75669880	6.12062481	9.63275324	1.98819428	3.93512264	9.70522560	0.98414229	-1.83559587	9.18272566	-0.41161642	-1.60237093	1.87811266	-10.56565448	-1.71008694	12.09356002	1.03121402	-0.33695852	5.48370889	-2.24131297	8.18615894	0.76102996	5.99814828	15.41248823
